<svg xmlns="http://www.w3.org/2000/svg" width="20.329" height="20.329" viewBox="0 0 20.329 20.329"><defs><style>.a{fill:#7680ac;}</style></defs><path class="a" d="M7.623,0H.847A.847.847,0,0,0,0,.847V7.623a.847.847,0,0,0,.847.847H7.623a.847.847,0,0,0,.847-.847V.847A.847.847,0,0,0,7.623,0Z"/><path class="a" d="M21.623,0H14.847A.847.847,0,0,0,14,.847V7.623a.847.847,0,0,0,.847.847h6.776a.847.847,0,0,0,.847-.847V.847A.847.847,0,0,0,21.623,0Z" transform="translate(-2.142 0)"/><path class="a" d="M7.623,14H.847A.847.847,0,0,0,0,14.847v6.776a.847.847,0,0,0,.847.847H7.623a.847.847,0,0,0,.847-.847V14.847A.847.847,0,0,0,7.623,14Z" transform="translate(0 -2.142)"/><path class="a" d="M21.623,14H14.847a.847.847,0,0,0-.847.847v6.776a.847.847,0,0,0,.847.847h6.776a.847.847,0,0,0,.847-.847V14.847A.847.847,0,0,0,21.623,14Z" transform="translate(-2.142 -2.142)"/></svg>