<svg xmlns="http://www.w3.org/2000/svg" width="20" height="15" viewBox="0 0 20 15"><defs><style>.a{fill:#b78a63;}</style></defs><g transform="translate(0 -64)"><path class="a" d="M15.5,75.25h.875a.538.538,0,0,0,.5-.5v-9a.538.538,0,0,0-.5-.5H15.5a.538.538,0,0,0-.5.5v9A.538.538,0,0,0,15.5,75.25Zm-7.5,0h.875a.538.538,0,0,0,.5-.5V67a.538.538,0,0,0-.5-.5H8a.538.538,0,0,0-.5.5v7.75A.538.538,0,0,0,8,75.25Zm3.75,0h.875a.538.538,0,0,0,.5-.5V69.5a.538.538,0,0,0-.5-.5H11.75a.538.538,0,0,0-.5.5v5.25A.538.538,0,0,0,11.75,75.25Zm7.625,1.875H1.875v-12.5A.625.625,0,0,0,1.25,64H.625A.625.625,0,0,0,0,64.625V77.75A1.25,1.25,0,0,0,1.25,79H19.375A.625.625,0,0,0,20,78.375V77.75A.625.625,0,0,0,19.375,77.125ZM4.25,75.25h.875a.538.538,0,0,0,.5-.5V72a.538.538,0,0,0-.5-.5H4.25a.538.538,0,0,0-.5.5v2.75a.538.538,0,0,0,.5.5Z"/></g></svg>