<svg xmlns="http://www.w3.org/2000/svg" width="15.57" height="15.567" viewBox="0 0 15.57 15.567"><defs><style>.a{fill:#fff;}</style></defs><path class="a" d="M7.712,35.617A3.991,3.991,0,1,0,11.7,39.608,3.985,3.985,0,0,0,7.712,35.617Zm0,6.586a2.595,2.595,0,1,1,2.595-2.595A2.6,2.6,0,0,1,7.712,42.2ZM12.8,35.454a.931.931,0,1,1-.931-.931A.929.929,0,0,1,12.8,35.454Zm2.643.945a4.607,4.607,0,0,0-1.257-3.262,4.637,4.637,0,0,0-3.262-1.257c-1.285-.073-5.137-.073-6.423,0a4.63,4.63,0,0,0-3.262,1.254A4.622,4.622,0,0,0-.02,36.4c-.073,1.285-.073,5.137,0,6.423A4.607,4.607,0,0,0,1.237,46.08,4.643,4.643,0,0,0,4.5,47.337c1.285.073,5.137.073,6.423,0a4.607,4.607,0,0,0,3.262-1.257,4.637,4.637,0,0,0,1.257-3.262C15.513,41.533,15.513,37.684,15.441,36.4Zm-1.66,7.8a2.627,2.627,0,0,1-1.48,1.48,17.156,17.156,0,0,1-4.589.313,17.289,17.289,0,0,1-4.589-.313,2.627,2.627,0,0,1-1.48-1.48,17.156,17.156,0,0,1-.313-4.589,17.29,17.29,0,0,1,.313-4.589,2.627,2.627,0,0,1,1.48-1.48,17.156,17.156,0,0,1,4.589-.313,17.289,17.289,0,0,1,4.589.313,2.627,2.627,0,0,1,1.48,1.48,17.156,17.156,0,0,1,.313,4.589A17.146,17.146,0,0,1,13.78,44.2Z" transform="translate(0.075 -31.825)"/></svg>