<svg xmlns="http://www.w3.org/2000/svg" width="15.973" height="20.761" viewBox="0 0 15.973 20.761"><defs><style>.a{fill:#fff;}</style></defs><path class="a" d="M8.486,6.5C4.218,6.5,0,9.345,0,13.95c0,2.928,1.647,4.592,2.646,4.592.412,0,.649-1.148.649-1.472,0-.387-.986-1.21-.986-2.82a5.621,5.621,0,0,1,5.84-5.715c2.833,0,4.929,1.61,4.929,4.567,0,2.209-.886,6.352-3.756,6.352A1.847,1.847,0,0,1,7.4,17.631c0-1.572,1.1-3.095,1.1-4.717,0-2.754-3.906-2.255-3.906,1.073a4.887,4.887,0,0,0,.4,2.109c-.574,2.471-1.747,6.152-1.747,8.7,0,.786.112,1.56.187,2.346.141.158.071.141.287.062,2.1-2.87,2.022-3.432,2.97-7.188a3.374,3.374,0,0,0,2.883,1.5c4.417,0,6.4-4.305,6.4-8.186C15.973,9.2,12.4,6.5,8.486,6.5Z" transform="translate(0 -6.5)"/></svg>