<svg xmlns="http://www.w3.org/2000/svg" width="17.349" height="14.091" viewBox="0 0 17.349 14.091"><defs><style>.a{fill:#fff;}</style></defs><path class="a" d="M15.566,51.594c.011.154.011.308.011.462A10.047,10.047,0,0,1,5.46,62.173,10.048,10.048,0,0,1,0,60.577a7.356,7.356,0,0,0,.859.044A7.121,7.121,0,0,0,5.273,59.1a3.562,3.562,0,0,1-3.325-2.466,4.484,4.484,0,0,0,.672.055,3.761,3.761,0,0,0,.936-.121A3.556,3.556,0,0,1,.7,53.08v-.044a3.581,3.581,0,0,0,1.607.451,3.561,3.561,0,0,1-1.1-4.756,10.107,10.107,0,0,0,7.332,3.721,4.014,4.014,0,0,1-.088-.815A3.559,3.559,0,0,1,14.608,49.2a7,7,0,0,0,2.257-.859A3.546,3.546,0,0,1,15.3,50.306a7.128,7.128,0,0,0,2.048-.55A7.643,7.643,0,0,1,15.566,51.594Z" transform="translate(0 -48.082)"/></svg>