<svg xmlns="http://www.w3.org/2000/svg" width="13.819" height="12.283" viewBox="0 0 13.819 12.283"><defs><style>.a{fill:#6e7280;}</style></defs><path class="a" d="M13.819.576v3.07a.576.576,0,0,1-.983.407L11.979,3.2,6.137,9.039a.576.576,0,0,1-.814,0L4.78,8.5a.576.576,0,0,1,0-.814L10.622,1.84,9.765.983A.576.576,0,0,1,10.173,0h3.07A.576.576,0,0,1,13.819.576ZM9.765,6.5l-.384.384a.576.576,0,0,0-.169.407v3.46H1.535V3.071H7.869A.576.576,0,0,0,8.276,2.9l.384-.384a.576.576,0,0,0-.407-.983h-7.1A1.152,1.152,0,0,0,0,2.687v8.445a1.152,1.152,0,0,0,1.152,1.152H9.6a1.152,1.152,0,0,0,1.152-1.152V6.9A.576.576,0,0,0,9.765,6.5Z"/></svg>