<svg xmlns="http://www.w3.org/2000/svg" width="18.706" height="18.706" viewBox="0 0 18.706 18.706"><defs><style>.a{fill:#fff;}</style></defs><path class="a" d="M15.9,34.718A9.273,9.273,0,0,0,1.315,45.9L0,50.706l4.915-1.29a9.241,9.241,0,0,0,4.43,1.127h0A9.211,9.211,0,0,0,15.9,34.718ZM9.349,48.982a7.691,7.691,0,0,1-3.925-1.073l-.28-.167-2.915.764.777-2.844-.184-.292a7.72,7.72,0,1,1,14.318-4.1A7.791,7.791,0,0,1,9.349,48.982Zm4.226-5.771c-.23-.117-1.37-.676-1.583-.752s-.367-.117-.522.117-.6.752-.735.91-.271.175-.5.058a6.3,6.3,0,0,1-3.153-2.756c-.238-.409.238-.38.681-1.265a.429.429,0,0,0-.021-.405c-.058-.117-.522-1.257-.714-1.72s-.38-.388-.522-.4-.288-.008-.443-.008a.858.858,0,0,0-.618.288,2.6,2.6,0,0,0-.81,1.933,4.538,4.538,0,0,0,.944,2.4,10.35,10.35,0,0,0,3.958,3.5,4.532,4.532,0,0,0,2.781.58,2.372,2.372,0,0,0,1.562-1.1,1.937,1.937,0,0,0,.134-1.1C13.959,43.382,13.8,43.324,13.575,43.211Z" transform="translate(0 -32)"/></svg>