<svg xmlns="http://www.w3.org/2000/svg" xmlns:xlink="http://www.w3.org/1999/xlink" width="21.871" height="21.871" viewBox="0 0 21.871 21.871"><defs><style>.a{fill:url(#a);}</style><linearGradient id="a" x1="0.5" x2="0.5" y2="1" gradientUnits="objectBoundingBox"><stop offset="0" stop-color="#f7ae00"/><stop offset="1" stop-color="#ea4c6c"/></linearGradient></defs><g transform="translate(-6 -6)"><path class="a" d="M10.4,15.471a18.3,18.3,0,0,0,8.007,8l2.673-2.679a1.219,1.219,0,0,1,1.233-.3,13.832,13.832,0,0,0,4.338.693A1.211,1.211,0,0,1,27.871,22.4v4.253a1.211,1.211,0,0,1-1.215,1.215A20.654,20.654,0,0,1,6,7.215,1.215,1.215,0,0,1,7.215,6h4.253a1.211,1.211,0,0,1,1.215,1.215,13.832,13.832,0,0,0,.693,4.338,1.219,1.219,0,0,1-.3,1.233Z"/></g></svg>