<svg xmlns="http://www.w3.org/2000/svg" xmlns:xlink="http://www.w3.org/1999/xlink" width="523" height="286" viewBox="0 0 523 286"><defs><style>.a,.e{fill:#fff;}.a{stroke:#707070;}.b{clip-path:url(#a);}.c{fill:url(#b);}.d{fill:url(#c);}</style><clipPath id="a"><rect class="a" width="523" height="286" transform="translate(0 -30.657)"/></clipPath><linearGradient id="b" x1="0.5" x2="0.5" y2="1" gradientUnits="objectBoundingBox"><stop offset="0" stop-color="#f7ae00"/><stop offset="1" stop-color="#ea4c6c"/></linearGradient><linearGradient id="c" x1="0.5" x2="0.5" y2="1" gradientUnits="objectBoundingBox"><stop offset="0" stop-color="#5922f2"/><stop offset="1" stop-color="#b125f2"/></linearGradient></defs><g class="b" transform="translate(0 30.657)"><path class="c" d="M-19048.75-4776.7c-194.764-5.394-134.021-150.122-278.918-110.435s-31.605-160.687-167.912-134.287,9.5-150.209-166.748-137.526-100.844,291.468-100.844,291.468l74.6,90.779Z" transform="translate(19562.697 5034.28)"/><path class="d" d="M-19044.385-4774.41c-195.928-5.425-134.822-151.018-280.584-111.094s-31.8-161.646-168.918-135.089,9.555-151.107-167.744-138.348-101.443,293.209-101.443,293.209l75.043,91.322Z" transform="translate(19520.258 5029.992)"/><path class="e" d="M-19048.75-4776.7c-194.764-5.394-134.021-150.122-278.918-110.435s-31.605-160.687-167.912-134.287,9.5-150.209-166.748-137.526-100.844,291.468-100.844,291.468l74.6,90.779Z" transform="translate(19508.07 5032.025)"/></g></svg>