<svg xmlns="http://www.w3.org/2000/svg" xmlns:xlink="http://www.w3.org/1999/xlink" width="1143" height="541" viewBox="0 0 1143 541"><defs><style>.a,.e{fill:#fff;}.a{stroke:#707070;}.b{clip-path:url(#a);}.c{fill:url(#b);}.d{fill:url(#c);}</style><clipPath id="a"><rect class="a" width="1143" height="541"/></clipPath><linearGradient id="b" x1="0.5" x2="0.5" y2="1" gradientUnits="objectBoundingBox"><stop offset="0" stop-color="#5922f2"/><stop offset="1" stop-color="#b125f2"/></linearGradient><linearGradient id="c" x1="0.5" x2="0.5" y2="1" gradientUnits="objectBoundingBox"><stop offset="0" stop-color="#f7ae00"/><stop offset="1" stop-color="#ea4c6c"/></linearGradient></defs><g class="b"><path class="c" d="M-18182.943-4322.847c-425.619-11.786-292.879-328.06-609.521-241.332s-69.068-351.148-366.937-293.456,20.754-328.253-364.395-300.535-220.371,636.943-220.371,636.943l163.02,198.38Z" transform="translate(19202.699 4868.814)"/><path class="d" d="M-18182.943-4322.847c-425.619-11.786-292.879-328.06-609.521-241.332s-69.068-351.148-366.937-293.456,20.754-328.253-364.395-300.535-220.371,636.943-220.371,636.943l163.02,198.38Z" transform="translate(19177.699 4863.814)"/><path class="e" d="M-18182.943-4322.847c-425.619-11.786-292.879-328.06-609.521-241.332s-69.068-351.148-366.937-293.456,20.754-328.253-364.395-300.535-220.371,636.943-220.371,636.943l163.02,198.38Z" transform="translate(19186.699 4880.814)"/></g></svg>