<svg xmlns="http://www.w3.org/2000/svg" xmlns:xlink="http://www.w3.org/1999/xlink" width="972" height="460" viewBox="0 0 972 460"><defs><style>.a,.e{fill:#fff;}.a{stroke:#707070;}.b{clip-path:url(#a);}.c{fill:url(#b);}.d{fill:url(#c);}</style><clipPath id="a"><rect class="a" width="972" height="460"/></clipPath><linearGradient id="b" x1="0.5" x2="0.5" y2="1" gradientUnits="objectBoundingBox"><stop offset="0" stop-color="#5922f2"/><stop offset="1" stop-color="#b125f2"/></linearGradient><linearGradient id="c" x1="0.5" x2="0.5" y2="1" gradientUnits="objectBoundingBox"><stop offset="0" stop-color="#f7ae00"/><stop offset="1" stop-color="#ea4c6c"/></linearGradient></defs><g class="b"><path class="c" d="M-18422.334-4448.334c-361.789-10.019-248.955-278.861-518.111-205.14s-58.711-298.486-311.908-249.447,17.643-279.025-309.746-255.463-187.322,541.421-187.322,541.421l138.57,168.629Z" transform="translate(19289.156 4912.557)"/><path class="d" d="M-18422.334-4448.334c-361.789-10.019-248.955-278.861-518.111-205.14s-58.711-298.486-311.908-249.447,17.643-279.025-309.746-255.463-187.322,541.421-187.322,541.421l138.57,168.629Z" transform="translate(19267.906 4908.307)"/><path class="e" d="M-18422.334-4448.334c-361.789-10.019-248.955-278.861-518.111-205.14s-58.711-298.486-311.908-249.447,17.643-279.025-309.746-255.463-187.322,541.421-187.322,541.421l138.57,168.629Z" transform="translate(19275.557 4922.757)"/></g></svg>