<svg xmlns="http://www.w3.org/2000/svg" xmlns:xlink="http://www.w3.org/1999/xlink" width="774" height="423" viewBox="0 0 774 423"><defs><style>.a,.e{fill:#fff;}.a{stroke:#707070;}.b{clip-path:url(#a);}.c{fill:url(#b);}.d{fill:url(#c);}</style><clipPath id="a"><rect class="a" width="774" height="423" transform="translate(0.442 0.5)"/></clipPath><linearGradient id="b" x1="0.5" x2="0.5" y2="1" gradientUnits="objectBoundingBox"><stop offset="0" stop-color="#f7ae00"/><stop offset="1" stop-color="#ea4c6c"/></linearGradient><linearGradient id="c" x1="0.5" x2="0.5" y2="1" gradientUnits="objectBoundingBox"><stop offset="0" stop-color="#5922f2"/><stop offset="1" stop-color="#b125f2"/></linearGradient></defs><g class="b" transform="translate(-0.442 -0.5)"><path class="c" d="M-19779.2-4592.611c288.4-7.987,198.455-222.3,413.012-163.528s46.8-237.939,248.641-198.847-14.064-222.426,246.914-203.644,149.326,431.6,149.326,431.6l-110.461,134.423Z" transform="translate(19792.607 5019.427)"/><path class="d" d="M-19779.2-4589.224c290.125-8.033,199.641-223.623,415.48-164.5s47.086-239.361,250.129-200.035-14.148-223.755,248.391-204.861,150.215,434.175,150.215,434.175l-111.121,135.226Z" transform="translate(19848.986 5013.078)"/><path class="e" d="M-19779.2-4592.611c288.4-7.987,198.455-222.3,413.012-163.528s46.8-237.939,248.641-198.847-14.064-222.426,246.914-203.644,149.326,431.6,149.326,431.6l-110.461,134.423Z" transform="translate(19873.498 5016.089)"/></g></svg>