<svg xmlns="http://www.w3.org/2000/svg" xmlns:xlink="http://www.w3.org/1999/xlink" width="1920" height="48" viewBox="0 0 1920 48"><defs><style>.a{fill:#e4ecfc;stroke:#707070;}.b{clip-path:url(#a);}.c{fill:none;stroke:#e4ecfc;}</style><clipPath id="a"><rect class="a" width="1920" height="48" transform="translate(71 491)"/></clipPath></defs><g class="b" transform="translate(-71 -491)"><g transform="translate(0 514)"><path class="c" d="M2142.7,388.688c-23.849,1.165-24.073-8-47.95-8s-23.879,8-47.759,8-23.877-8-47.755-8-23.878,8-47.756,8-23.879-8-47.758-8-23.878,8-47.756,8-23.879-8-47.757-8-23.88,8-47.76,8-23.878-8-47.757-8-23.878,8-47.756,8-23.879-8-47.757-8-23.879,8-47.758,8-23.88-8-47.759-8-23.88,8-47.76,8-23.88-8-47.76-8-23.879,8-47.759,8-23.879-8-47.759-8-23.879,8-47.757,8-23.88-8-47.759-8-23.88,8-47.76,8-23.88-8-47.759-8-23.88,8-47.76,8-23.879-8-47.759-8-23.879,8-47.759,8-23.88-8-47.76-8-23.877,8-47.755,8-23.878-8-47.756-8-23.881,8-47.762,8-23.878-8-47.756-8-23.88,8-47.76,8-23.879-8-47.758-8-23.879,8-47.758,8-23.88-8-47.76-8-23.881,8-47.762,8-23.882-8-47.763-8-23.881,8-47.762,8-23.881-8-47.763-8-23.88,8-47.761,8-23.88-8-47.761-8-23.882,8-47.764,8-23.881-8-47.762-8-23.884,8-47.769,8S112.9,381.857,89.049,380.7c-1.16-.056-4.2,2.834-4.2,1.673s8-1.161,8-2.323-8-1.162-8-2.324,8-1.163,8-2.325-8-1.162-8-2.324,8-1.161,8-2.322-8-1.162-8-2.323,8-1.162,8-2.324-8-1.163-8-2.325,8-1.163,8-2.325-8-1.162-8-2.324,8-1.162,8-2.323-8-1.163-8-2.325,8-1.163,8-2.326-8-1.162-8-2.325,8-1.162,8-2.324-8-1.162-8-2.325,8-1.163,8-2.326-8-1.162-8-2.324,8-1.163,8-2.325-8-1.163-8-2.326,8-1.161,8-2.322-8-1.16-8-2.32,8-1.161,8-2.322-8-1.163-8-2.326,8-1.162,8-2.325-8-1.161-8-2.322,8-1.163,8-2.325-8-1.164-8-2.327,8-1.163,8-2.325-8-1.164-8-2.327,8-1.163,8-2.326-8-1.164-8-2.329,8-1.163,8-2.326-8-1.164-8-2.328,8-1.164,8-2.328-8-1.162-8-2.324,8-1.164,8-2.328-8-1.165-8-2.33,8-1.165,8-2.33-8-1.165-8-2.331,8-1.167,8-2.334-5.361-6.273-4.195-6.33c23.849-1.166,24.073,7.995,47.95,7.995s23.879-8,47.758-8,23.878,8,47.756,8,23.878-8,47.756-8,23.879,8,47.758,8,23.878-8,47.756-8,23.878,8,47.756,8,23.88-8,47.76-8,23.879,8,47.757,8,23.878-8,47.757-8,23.878,8,47.757,8,23.879-8,47.758-8,23.879,8,47.759,8,23.88-8,47.76-8,23.879,8,47.759,8,23.88-8,47.76-8,23.879,8,47.758,8,23.879-8,47.758-8,23.879,8,47.758,8,23.881-8,47.761-8,23.879,8,47.758,8,23.88-8,47.761-8,23.879,8,47.758,8,23.88-8,47.76-8,23.88,8,47.76,8,23.877-8,47.754-8,23.878,8,47.757,8,23.88-8,47.761-8,23.879,8,47.757,8,23.88-8,47.76-8,23.878,8,47.757,8,23.88-8,47.759-8,23.88,8,47.76,8,23.881-8,47.762-8,23.881,8,47.763,8,23.88-8,47.761-8,23.882,8,47.764,8,23.88-8,47.76-8,23.881,8,47.762,8,23.882-8,47.764-8,23.881,8,47.762,8,23.884-8,47.768-8,23.719,6.836,47.575,8c1.16.056,4.194-2.835,4.194-1.674s-8,1.162-8,2.323,8,1.163,8,2.325-8,1.162-8,2.325,8,1.162,8,2.323-8,1.162-8,2.323,8,1.161,8,2.323-8,1.162-8,2.324,8,1.162,8,2.325-8,1.162-8,2.325,8,1.162,8,2.323-8,1.162-8,2.324,8,1.162,8,2.324-8,1.163-8,2.327,8,1.162,8,2.324-8,1.162-8,2.324,8,1.163,8,2.325-8,1.163-8,2.326,8,1.163,8,2.325-8,1.162-8,2.325,8,1.163,8,2.326-8,1.16-8,2.321,8,1.161,8,2.321-8,1.161-8,2.322,8,1.162,8,2.325-8,1.163-8,2.325,8,1.162,8,2.323-8,1.162-8,2.325,8,1.163,8,2.327-8,1.162-8,2.325,8,1.163,8,2.327-8,1.163-8,2.326,8,1.164,8,2.328-8,1.164-8,2.327,8,1.164,8,2.328-8,1.164-8,2.328,8,1.162,8,2.324-8,1.164-8,2.327,8,1.165,8,2.33-8,1.165-8,2.33,8,1.166,8,2.331-8.133,1.807-7.951,2.96C2139.071,386.228,2143.869,388.631,2142.7,388.688Z" transform="translate(-84.854 -280.594)"/></g></g></svg>