<svg xmlns="http://www.w3.org/2000/svg" xmlns:xlink="http://www.w3.org/1999/xlink" width="192" height="187" viewBox="0 0 192 187"><defs><style>.a{fill:url(#a);}.b,.e,.f,.g{fill:#fff;}.c{fill:url(#b);}.d{opacity:0.5;}.e{font-size:24px;}.e,.f{font-family:Montserrat-Black, Montserrat;font-weight:800;}.f{font-size:14px;}.g{font-size:8px;font-family:Montserrat-SemiBold, Montserrat;font-weight:600;letter-spacing:0.443em;}</style><linearGradient id="a" x1="0.752" x2="0.125" y2="0.799" gradientUnits="objectBoundingBox"><stop offset="0" stop-color="#f7ae00"/><stop offset="1" stop-color="#ea4c6c"/></linearGradient><linearGradient id="b" x1="0.358" y1="0.954" x2="0.781" y2="0.092" gradientUnits="objectBoundingBox"><stop offset="0" stop-color="#5922f2"/><stop offset="1" stop-color="#b125f2"/></linearGradient></defs><path class="a" d="M103.844,5.325a21.256,21.256,0,0,1,23.389,5.336l.03.033a21.256,21.256,0,0,0,14.045,6.759l.047,0a21.256,21.256,0,0,1,18.767,14.961l.006.018a21.256,21.256,0,0,0,9.729,12.191l.019.011A21.256,21.256,0,0,1,180.3,66.273h0a21.256,21.256,0,0,0,3.475,15.215h0a21.256,21.256,0,0,1,0,24.021h0a21.256,21.256,0,0,0-3.475,15.215h0a21.256,21.256,0,0,1-10.423,21.635l-.019.011a21.256,21.256,0,0,0-9.729,12.191l-.006.019a21.256,21.256,0,0,1-18.767,14.961l-.047,0a21.256,21.256,0,0,0-14.045,6.759l-.03.033a21.256,21.256,0,0,1-23.389,5.336l-.053-.021a21.256,21.256,0,0,0-15.581,0l-.053.021a21.256,21.256,0,0,1-23.389-5.336l-.03-.033a21.256,21.256,0,0,0-14.045-6.759l-.047,0a21.256,21.256,0,0,1-18.767-14.961l-.006-.019a21.256,21.256,0,0,0-9.729-12.191l-.019-.011A21.256,21.256,0,0,1,11.7,120.727h0a21.256,21.256,0,0,0-3.475-15.215h0a21.256,21.256,0,0,1,0-24.021h0A21.256,21.256,0,0,0,11.7,66.273h0A21.256,21.256,0,0,1,22.123,44.639l.019-.011a21.256,21.256,0,0,0,9.729-12.191l.006-.019A21.256,21.256,0,0,1,50.645,17.457l.047,0a21.256,21.256,0,0,0,14.045-6.759l.03-.033A21.256,21.256,0,0,1,88.156,5.325l.053.021a21.256,21.256,0,0,0,15.581,0Z"/><ellipse class="b" cx="80" cy="79.5" rx="80" ry="79.5" transform="translate(16 14)"/><ellipse class="c" cx="66" cy="65.5" rx="66" ry="65.5" transform="translate(30 28)"/><path class="a" d="M73.728,147.455a74.274,74.274,0,0,1-14.859-1.5,73.324,73.324,0,0,1-26.363-11.094A73.942,73.942,0,0,1,5.794,102.426,73.354,73.354,0,0,1,1.5,88.586a74.446,74.446,0,0,1,0-29.717A73.324,73.324,0,0,1,12.592,32.506,73.943,73.943,0,0,1,45.03,5.794,73.354,73.354,0,0,1,58.869,1.5a74.446,74.446,0,0,1,29.717,0,73.323,73.323,0,0,1,26.363,11.094A73.942,73.942,0,0,1,141.661,45.03a73.353,73.353,0,0,1,4.3,13.839,74.447,74.447,0,0,1,0,29.717,73.324,73.324,0,0,1-11.094,26.363,73.942,73.942,0,0,1-32.438,26.712,73.352,73.352,0,0,1-13.839,4.3A74.273,74.273,0,0,1,73.728,147.455Zm0-145.065A71.865,71.865,0,0,0,59.351,3.84,70.946,70.946,0,0,0,33.842,14.574,71.546,71.546,0,0,0,8,45.96,70.98,70.98,0,0,0,3.84,59.351a72.033,72.033,0,0,0,0,28.754,70.946,70.946,0,0,0,10.734,25.508A71.545,71.545,0,0,0,45.96,139.459a70.977,70.977,0,0,0,13.391,4.157,72.032,72.032,0,0,0,28.754,0,70.947,70.947,0,0,0,25.508-10.734A71.545,71.545,0,0,0,139.459,101.5,70.977,70.977,0,0,0,143.616,88.1a72.032,72.032,0,0,0,0-28.754,70.946,70.946,0,0,0-10.734-25.508A71.546,71.546,0,0,0,101.5,8,70.979,70.979,0,0,0,88.1,3.84,71.865,71.865,0,0,0,73.728,2.39Z" transform="translate(22.596 19.941)"/><g transform="translate(48.047 41.597)"><g class="d" transform="translate(12.644 2)"><path class="b" d="M7,0,9.31,4.4,14,5.348,10.738,9.016,11.326,14,7,11.871,2.674,14l.589-4.984L0,5.348,4.69,4.4Z" transform="translate(29.309 0.403)"/><path class="b" d="M5.5,0,7.315,3.14,11,3.82,8.437,6.44,8.9,10,5.5,8.479,2.1,10l.462-3.56L0,3.82l3.685-.68Z" transform="translate(48.309 5.403)"/><path class="b" d="M6,0,7.98,3.14,12,3.82,9.2,6.44l.5,3.56L6,8.479,2.292,10l.5-3.56L0,3.82l4.02-.68Z" transform="translate(12.309 5.403)"/></g><g class="d" transform="translate(6.322 86.713)"><path class="b" d="M7,0,9.31,4.4,14,5.348,10.738,9.016,11.326,14,7,11.871,2.674,14l.589-4.984L0,5.348,4.69,4.4Z" transform="translate(35.631 4.69)"/><path class="b" d="M5.5,0,7.315,3.454,11,4.2,8.437,7.084,8.9,11,5.5,9.327,2.1,11l.462-3.916L0,4.2l3.685-.748Z" transform="translate(58.631 3.69)"/><path class="b" d="M5.5,0,7.315,3.454,11,4.2,8.437,7.084,8.9,11,5.5,9.327,2.1,11l.462-3.916L0,4.2l3.685-.748Z" transform="translate(16.631 3.69)"/></g><g transform="translate(0 26.551)"><text class="e" transform="translate(47.953 22.851)"><tspan x="-44.604" y="0">14 DAY</tspan></text><text class="f" transform="translate(47.953 50.851)"><tspan x="-46.893" y="0">GUARANTEE</tspan></text><text class="g" transform="translate(47.953 34.851)"><tspan x="-44.596" y="0">MONEY BACK</tspan></text></g></g></svg>