<svg xmlns="http://www.w3.org/2000/svg" xmlns:xlink="http://www.w3.org/1999/xlink" width="1920" height="752" viewBox="0 0 1920 752"><defs><style>.a{fill:#e4ecfc;stroke:#707070;}.b{fill:#2a3d68;}.c{clip-path:url(#a);}.d{fill:url(#b);}.e{fill:url(#c);}.f{fill:#fff;}</style><clipPath id="a"><rect class="a" width="1920" height="750"/></clipPath><linearGradient id="b" x1="0.403" y1="0.685" x2="0.724" y2="0.297" gradientUnits="objectBoundingBox"><stop offset="0" stop-color="#5922f2"/><stop offset="1" stop-color="#b125f2"/></linearGradient><linearGradient id="c" x1="0.169" y1="0.808" x2="0.75" y2="0.369" gradientUnits="objectBoundingBox"><stop offset="0" stop-color="#f7ae00"/><stop offset="1" stop-color="#ea4c6c"/></linearGradient></defs><rect class="b" width="1920" height="752"/><g class="c" transform="translate(0 2)"><g transform="translate(208 -161.06)"><path class="d" d="M0,836.749c425.618-11.786,292.877-328.059,609.52-241.331S678.588,244.27,976.459,301.961,955.7-26.291,1340.853,1.427,1561.225,638.37,1561.225,638.37L1398.2,836.749Z" transform="matrix(0.995, -0.105, 0.105, 0.995, 348, 184.38)"/><path class="e" d="M0,836.749C425.618,824.963,292.877,508.69,609.52,595.418S678.588,244.27,976.459,301.961,955.7-26.291,1340.853,1.427,1561.225,638.37,1561.225,638.37L1398.2,836.749Z" transform="matrix(0.996, -0.087, 0.087, 0.996, 410.202, 139.123)"/><path class="f" d="M-19779.205-4322.847c425.619-11.786,292.879-328.06,609.521-241.332s69.068-351.148,366.938-293.456-20.754-328.253,364.395-300.535,220.371,636.943,220.371,636.943l-163.02,198.38Z" transform="translate(20237.449 5234.874)"/></g><g transform="translate(-519 -328.06)"><path class="d" d="M0,836.749C425.618,824.964,292.877,508.69,609.52,595.418S678.589,244.27,976.459,301.962,955.7-26.291,1340.853,1.428s220.372,636.943,220.372,636.943L1398.2,836.75Z" transform="translate(1725.315 832.166) rotate(174)"/><path class="e" d="M0,836.75c425.618-11.786,292.877-328.06,609.52-241.332S678.588,244.27,976.459,301.961,955.7-26.291,1340.853,1.427,1561.225,638.37,1561.225,638.37L1398.2,836.749Z" transform="translate(1663.113 877.423) rotate(175)"/><path class="f" d="M-18182.945-5159.6c-425.619,11.786-292.879,328.06-609.521,241.332s-69.068,351.148-366.937,293.456,20.754,328.253-364.395,300.535-220.371-636.943-220.371-636.943l163.02-198.38Z" transform="translate(19798.016 5264.116)"/></g></g></svg>