<svg xmlns="http://www.w3.org/2000/svg" width="47" height="47" viewBox="0 0 47 47"><defs><style>.a{fill:#00588f;}.b{fill:#fff;}</style></defs><g transform="translate(-1241 -8363)"><rect class="a" width="47" height="47" rx="23.5" transform="translate(1241 8363)"/><g transform="translate(1253.818 8343.918)"><path class="b" d="M10.991,37.214a5.672,5.672,0,1,0,5.672,5.672A5.663,5.663,0,0,0,10.991,37.214Zm0,9.359a3.687,3.687,0,1,1,3.687-3.687,3.694,3.694,0,0,1-3.687,3.687Zm7.227-9.591A1.323,1.323,0,1,1,16.9,35.659,1.32,1.32,0,0,1,18.218,36.982Zm3.757,1.343a6.547,6.547,0,0,0-1.787-4.635A6.59,6.59,0,0,0,15.552,31.9c-1.826-.1-7.3-.1-9.127,0A6.581,6.581,0,0,0,1.79,33.685,6.568,6.568,0,0,0,0,38.32c-.1,1.826-.1,7.3,0,9.127A6.547,6.547,0,0,0,1.79,52.083,6.6,6.6,0,0,0,6.425,53.87c1.826.1,7.3.1,9.127,0a6.547,6.547,0,0,0,4.635-1.787,6.59,6.59,0,0,0,1.787-4.635c.1-1.826.1-7.3,0-9.122Zm-2.36,11.082a3.733,3.733,0,0,1-2.1,2.1c-1.456.578-4.912.444-6.521.444s-5.07.128-6.521-.444a3.733,3.733,0,0,1-2.1-2.1c-.578-1.456-.444-4.912-.444-6.521s-.128-5.07.444-6.521a3.733,3.733,0,0,1,2.1-2.1c1.456-.578,4.912-.444,6.521-.444s5.07-.128,6.521.444a3.733,3.733,0,0,1,2.1,2.1c.578,1.456.444,4.912.444,6.521S20.193,47.956,19.615,49.407Z"/></g></g></svg>