<svg xmlns="http://www.w3.org/2000/svg" xmlns:xlink="http://www.w3.org/1999/xlink" viewBox="0 0 555.82 86.04"><defs><style>.cls-1{isolation:isolate;}.cls-2{fill:#00588f;}.cls-3{fill:#2a3d68;}.cls-4{fill:#b8c7dd;}.cls-5{fill:url(#Gradiente_sem_nome_42);}.cls-6{fill:url(#Gradiente_sem_nome_31);}.cls-7{fill:url(#Gradiente_sem_nome_31-2);}.cls-8{fill:#2a2056;opacity:0.11;mix-blend-mode:multiply;}</style><linearGradient id="Gradiente_sem_nome_42" x1="11.96" y1="2.2" x2="68.79" y2="79.65" gradientUnits="userSpaceOnUse"><stop offset="0" stop-color="#f7ae00"/><stop offset="1" stop-color="#ea4c6c"/></linearGradient><linearGradient id="Gradiente_sem_nome_31" x1="55.72" y1="64.78" x2="94.22" y2="-0.07" gradientUnits="userSpaceOnUse"><stop offset="0" stop-color="#5922f2"/><stop offset="1" stop-color="#b125f2"/></linearGradient><linearGradient id="Gradiente_sem_nome_31-2" x1="71.28" y1="49.87" x2="57.44" y2="87.27" xlink:href="#Gradiente_sem_nome_31"/></defs><g class="cls-1"><g id="Camada_2" data-name="Camada 2"><g id="Camada_1-2" data-name="Camada 1"><path class="cls-2" d="M156,49.48H141.17a16.4,16.4,0,0,1-6.62-1.23,14.2,14.2,0,0,1-4.78-3.38,14.33,14.33,0,0,1-2.43-15.34,14.41,14.41,0,0,1,3.35-4.66,13.72,13.72,0,0,1,4.47-2.75,16.94,16.94,0,0,1,6-1H156v7.51H141.17a8.55,8.55,0,0,0-3.18.5,7,7,0,0,0-2.18,1.34,6.87,6.87,0,0,0-1.53,2.18,6.42,6.42,0,0,0-.57,2.68,6.52,6.52,0,0,0,.46,2.46,6.35,6.35,0,0,0,1.3,2,6.61,6.61,0,0,0,2.31,1.59,8.69,8.69,0,0,0,3.39.59H156Z"/><path class="cls-2" d="M173,49.48a16.48,16.48,0,0,1-6.63-1.23,14.3,14.3,0,0,1-4.78-3.38A14,14,0,0,1,158,35.31a13.83,13.83,0,0,1,1.21-5.78,14.29,14.29,0,0,1,3.36-4.66A13.67,13.67,0,0,1,167,22.12a17,17,0,0,1,6-1H179a17,17,0,0,1,6,1,13.72,13.72,0,0,1,4.47,2.75,14.41,14.41,0,0,1,3.35,4.66,14.46,14.46,0,0,1,.25,11,14.13,14.13,0,0,1-2.68,4.32,14.3,14.3,0,0,1-4.78,3.38A16.45,16.45,0,0,1,179,49.48Zm0-20.83a8.58,8.58,0,0,0-3.19.5,6.45,6.45,0,0,0-3.71,3.52,6.41,6.41,0,0,0-.56,2.68,6.52,6.52,0,0,0,.46,2.46,6.19,6.19,0,0,0,1.3,2,6.48,6.48,0,0,0,2.3,1.59A8.78,8.78,0,0,0,173,42H179a8.71,8.71,0,0,0,3.4-.59,6.61,6.61,0,0,0,2.31-1.59,6.33,6.33,0,0,0,1.29-2,6.53,6.53,0,0,0,.47-2.46,6.42,6.42,0,0,0-.57-2.68,6.45,6.45,0,0,0-3.71-3.52,8.58,8.58,0,0,0-3.19-.5Z"/><path class="cls-2" d="M193.25,22.4q-.17-.34-.27-.63c-.07-.2-.13-.41-.19-.63h9c.09.36.19.7.3,1l8.47,19.58a1.58,1.58,0,0,0,.52.67,1.22,1.22,0,0,0,.69.21,1.25,1.25,0,0,0,.67-.19,1.48,1.48,0,0,0,.51-.69l8.38-19.58a6,6,0,0,0,.34-1h8.85c-.06.22-.12.43-.19.63a5.37,5.37,0,0,1-.28.63L219.88,44.87a8.15,8.15,0,0,1-8.18,5.2,8.32,8.32,0,0,1-8.22-5.2Z"/><path class="cls-2" d="M261.85,21.14v7.51H240.3c-.45,0-.67.23-.67.71v3.23h22.09V38H239.63v3.44c0,.5.22.75.67.75h21.55v7.25H236c-2.66,0-4-1.31-4-3.94V25q0-3.81,4-3.81Z"/><path class="cls-2" d="M273,49.48h-7.59V22.9c0-1.17.63-1.76,1.89-1.76h20.13a11.18,11.18,0,0,1,4.36.73,8.76,8.76,0,0,1,2.89,1.95,8.4,8.4,0,0,1,1.66,2.54,7.85,7.85,0,0,1,.6,3,9,9,0,0,1-.58,3.25,5.77,5.77,0,0,1-2.1,2.62,5.21,5.21,0,0,1,2.08,2.14,8.61,8.61,0,0,1,.65,3.73V46.8c0,.62,0,1.12,0,1.51a11.54,11.54,0,0,0,.1,1.17h-7.67a12.9,12.9,0,0,1-.13-1.88V41.94A2.34,2.34,0,0,0,288.6,40a3.8,3.8,0,0,0-2.39-.59H273ZM286.42,33a2.9,2.9,0,0,0,1.3-.25,2.62,2.62,0,0,0,.84-.67,2.28,2.28,0,0,0,.54-1.47,2.16,2.16,0,0,0-.63-1.59,2.6,2.6,0,0,0-2.05-.75H273.63a.55.55,0,0,0-.63.62V33Z"/><path class="cls-2" d="M330.49,21.14v7.51H308.94c-.45,0-.68.23-.68.71v3.23h22.1V38h-22.1v3.44c0,.5.23.75.68.75h21.55v7.25H304.66c-2.66,0-4-1.31-4-3.94V25q0-3.81,4-3.81Z"/><path class="cls-2" d="M351.2,21.14a17,17,0,0,1,6,1,13.57,13.57,0,0,1,4.46,2.75A14.29,14.29,0,0,1,365,29.53a13.83,13.83,0,0,1,1.21,5.78,14,14,0,0,1-3.64,9.56,14.3,14.3,0,0,1-4.78,3.38,16.48,16.48,0,0,1-6.63,1.23H335.9a1.61,1.61,0,0,1-1.85-1.8V22.9c0-1.17.62-1.76,1.85-1.76Zm-9,7.51c-.37,0-.55.19-.55.58v12.2c0,.39.18.59.55.59h9a8.78,8.78,0,0,0,3.4-.59,6.48,6.48,0,0,0,2.3-1.59,6.19,6.19,0,0,0,1.3-2,6.52,6.52,0,0,0,.46-2.46,6.41,6.41,0,0,0-.56-2.68,6.45,6.45,0,0,0-3.71-3.52,8.58,8.58,0,0,0-3.19-.5Z"/><path class="cls-3" d="M407.43,21.14a13.52,13.52,0,0,1,5.05.82,10.09,10.09,0,0,1,3.46,2.24,10.73,10.73,0,0,1,2.31,3.44,10.52,10.52,0,0,1,.83,4.11,10,10,0,0,1-.65,3.62,11,11,0,0,1-1.82,3.17,10.55,10.55,0,0,1-3.69,2.79,13.12,13.12,0,0,1-5.49,1h-13v7.12H386.8V22.9c0-1.17.61-1.76,1.84-1.76Zm.17,14.26a4.89,4.89,0,0,0,2-.36,3.14,3.14,0,0,0,1.24-1,3.24,3.24,0,0,0,.67-2,3.39,3.39,0,0,0-.72-2.14,3,3,0,0,0-1.23-.92,5.13,5.13,0,0,0-2-.33H394.93c-.36,0-.54.19-.54.58V35.4Z"/><path class="cls-3" d="M429.73,49.48h-7.58V22.9c0-1.17.62-1.76,1.88-1.76h20.13a11.18,11.18,0,0,1,4.36.73,8.76,8.76,0,0,1,2.89,1.95,8.4,8.4,0,0,1,1.66,2.54,7.86,7.86,0,0,1,.61,3,9,9,0,0,1-.59,3.25,5.77,5.77,0,0,1-2.1,2.62,5.21,5.21,0,0,1,2.08,2.14,8.61,8.61,0,0,1,.65,3.73V46.8c0,.62,0,1.12,0,1.51a11.54,11.54,0,0,0,.1,1.17h-7.67A14.47,14.47,0,0,1,446,47.6V41.94a2.34,2.34,0,0,0-.71-1.93,3.78,3.78,0,0,0-2.39-.59H429.73ZM443.15,33a2.87,2.87,0,0,0,1.3-.25,2.42,2.42,0,0,0,.84-.67,2.3,2.3,0,0,0,.55-1.47,2.16,2.16,0,0,0-.63-1.59,2.64,2.64,0,0,0-2.06-.75H430.36a.55.55,0,0,0-.63.62V33Z"/><path class="cls-3" d="M487.22,21.14v7.51H465.67c-.45,0-.67.23-.67.71v3.23h22.09V38H465v3.44c0,.5.22.75.67.75h21.55v7.25H461.39q-4,0-4-3.94V25q0-3.81,4-3.81Z"/><path class="cls-3" d="M520.43,28.65H500.05a3.29,3.29,0,0,0-1.11.14,1.75,1.75,0,0,0-.65.4,2,2,0,0,0-.59,1.47,1.89,1.89,0,0,0,.71,1.51,1.76,1.76,0,0,0,.61.31,3.83,3.83,0,0,0,1,.11H512.5a10.51,10.51,0,0,1,4,.69,8.32,8.32,0,0,1,2.79,1.86,9,9,0,0,1,1.78,2.69A8.09,8.09,0,0,1,521.2,44a8.84,8.84,0,0,1-1.53,2.56,8.54,8.54,0,0,1-2.91,2.14,10.22,10.22,0,0,1-4.26.79h-22V42.23h20.63a3.75,3.75,0,0,0,1.36-.19,1.91,1.91,0,0,0,.78-.52,2,2,0,0,0,.46-1.3,2,2,0,0,0-.59-1.51,1.59,1.59,0,0,0-.73-.48,4.17,4.17,0,0,0-1.28-.15H499.63a12.68,12.68,0,0,1-4.59-.69,8,8,0,0,1-2.87-1.87,8.56,8.56,0,0,1-1.76-2.66,8.26,8.26,0,0,1-.63-3.25,8,8,0,0,1,.65-3.23,8.66,8.66,0,0,1,1.78-2.68,7.9,7.9,0,0,1,2.85-1.87,12.52,12.52,0,0,1,4.57-.69h20.8Z"/><path class="cls-3" d="M554.48,28.65H534.1a3.25,3.25,0,0,0-1.11.14,1.67,1.67,0,0,0-.65.4,2,2,0,0,0-.59,1.47,1.89,1.89,0,0,0,.71,1.51,1.67,1.67,0,0,0,.61.31,3.83,3.83,0,0,0,1,.11h12.45a10.58,10.58,0,0,1,4.05.69,8.18,8.18,0,0,1,2.78,1.86,9,9,0,0,1,1.79,2.69,8.09,8.09,0,0,1,.08,6.16,9.31,9.31,0,0,1-1.53,2.56,8.54,8.54,0,0,1-2.91,2.14,10.22,10.22,0,0,1-4.26.79h-22V42.23h20.63a3.75,3.75,0,0,0,1.36-.19,2,2,0,0,0,.78-.52,2,2,0,0,0,.46-1.3,2,2,0,0,0-.59-1.51,1.59,1.59,0,0,0-.73-.48,4.21,4.21,0,0,0-1.28-.15H533.68a12.68,12.68,0,0,1-4.59-.69,8.17,8.17,0,0,1-2.88-1.87,8.74,8.74,0,0,1-1.76-2.66,8.26,8.26,0,0,1-.63-3.25,8.14,8.14,0,0,1,.65-3.23,8.86,8.86,0,0,1,1.79-2.68,7.9,7.9,0,0,1,2.85-1.87,12.48,12.48,0,0,1,4.57-.69h20.8Z"/><path class="cls-4" d="M434.8,66.6V60.65l-2.91,5h-.25l-2.91-5V66.6h-.49V59.65h.43l3.1,5.37,3.11-5.37h.42V66.6Z"/><path class="cls-4" d="M441.94,64.13h-4.46a2.13,2.13,0,0,0,.31,1.07,1.89,1.89,0,0,0,.78.73,2.24,2.24,0,0,0,1.1.26,2.42,2.42,0,0,0,.94-.18,1.76,1.76,0,0,0,.72-.54l.29.33a2.13,2.13,0,0,1-.85.62,2.72,2.72,0,0,1-1.11.22,2.77,2.77,0,0,1-1.38-.34,2.34,2.34,0,0,1-.94-.93A2.67,2.67,0,0,1,437,64a2.79,2.79,0,0,1,.33-1.36,2.32,2.32,0,0,1,.88-.93,2.57,2.57,0,0,1,2.54,0,2.26,2.26,0,0,1,.88.93A2.75,2.75,0,0,1,442,64Zm-3.45-2.07a1.9,1.9,0,0,0-.7.68,2.38,2.38,0,0,0-.3,1h4a2.06,2.06,0,0,0-.3-1,2,2,0,0,0-2.67-.69Z"/><path class="cls-4" d="M448.09,59.23V66.6h-.48V65.38a2.3,2.3,0,0,1-.87.93,2.42,2.42,0,0,1-1.26.33,2.54,2.54,0,0,1-1.31-.34,2.35,2.35,0,0,1-.92-.93,2.77,2.77,0,0,1-.33-1.36,2.8,2.8,0,0,1,.33-1.37,2.35,2.35,0,0,1,.92-.93,2.63,2.63,0,0,1,1.31-.33,2.35,2.35,0,0,1,2.12,1.24V59.23Zm-1.51,6.68a2,2,0,0,0,.74-.77,2.42,2.42,0,0,0,0-2.26,2.06,2.06,0,0,0-.74-.78,2.18,2.18,0,0,0-2.14,0,2.06,2.06,0,0,0-.74.78,2.5,2.5,0,0,0,0,2.26,2,2,0,0,0,.74.77,2.18,2.18,0,0,0,2.14,0Z"/><path class="cls-4" d="M450.15,60a.36.36,0,0,1-.12-.28.4.4,0,0,1,.12-.29.38.38,0,0,1,.28-.12.38.38,0,0,1,.29.12.36.36,0,0,1,.12.28.4.4,0,0,1-.12.29.38.38,0,0,1-.29.12A.38.38,0,0,1,450.15,60Zm0,1.38h.49V66.6h-.49Z"/><path class="cls-4" d="M456,61.87a1.88,1.88,0,0,1,.52,1.44V66.6H456v-.92a1.7,1.7,0,0,1-.72.71,2.4,2.4,0,0,1-1.14.25,2.13,2.13,0,0,1-1.37-.41,1.41,1.41,0,0,1,0-2.12,2.22,2.22,0,0,1,1.48-.4H456v-.42a1.46,1.46,0,0,0-.39-1.1,1.58,1.58,0,0,0-1.14-.38,2.72,2.72,0,0,0-1,.18,2.44,2.44,0,0,0-.8.48l-.25-.36a2.84,2.84,0,0,1,.93-.54,3.41,3.41,0,0,1,1.14-.19A2,2,0,0,1,456,61.87Zm-.66,4.06a1.74,1.74,0,0,0,.68-.86v-1h-1.76a1.74,1.74,0,0,0-1.11.28.91.91,0,0,0-.34.76,1,1,0,0,0,.37.8,1.77,1.77,0,0,0,1.07.29A1.91,1.91,0,0,0,455.34,65.93Z"/><path class="cls-4" d="M463.69,66.27a1.47,1.47,0,0,1-.47.28,2,2,0,0,1-.6.09,1.41,1.41,0,0,1-1-.37,1.45,1.45,0,0,1-.36-1V61.84h-1v-.42h1V60.29h.49v1.13h1.65v.42h-1.65v3.34A1.11,1.11,0,0,0,462,66a.94.94,0,0,0,.72.26,1.12,1.12,0,0,0,.81-.29Z"/><path class="cls-4" d="M465.58,66.3a2.47,2.47,0,0,1-.93-.94,2.76,2.76,0,0,1-.34-1.35,2.8,2.8,0,0,1,.34-1.36,2.44,2.44,0,0,1,.93-.93,2.55,2.55,0,0,1,1.32-.34,2.58,2.58,0,0,1,1.33.34,2.44,2.44,0,0,1,.93.93,2.79,2.79,0,0,1,.33,1.36,2.75,2.75,0,0,1-.33,1.35,2.47,2.47,0,0,1-.93.94,2.58,2.58,0,0,1-1.33.34A2.55,2.55,0,0,1,465.58,66.3Zm2.39-.39a2,2,0,0,0,.75-.77,2.5,2.5,0,0,0,0-2.26,2.08,2.08,0,0,0-.75-.78,2.17,2.17,0,0,0-2.13,0,2,2,0,0,0-.75.78,2.5,2.5,0,0,0,0,2.26,1.92,1.92,0,0,0,.75.77,2.17,2.17,0,0,0,2.13,0Z"/><path class="cls-4" d="M478.57,66.6l-1.66-2.32a5.58,5.58,0,0,1-.67,0h-2V66.6h-.51V59.65h2.5a3.13,3.13,0,0,1,2.05.62A2.11,2.11,0,0,1,479,62a2.28,2.28,0,0,1-.43,1.39,2.23,2.23,0,0,1-1.2.79l1.73,2.43Zm-2.33-2.72a2.54,2.54,0,0,0,1.69-.49,1.94,1.94,0,0,0,0-2.79,2.54,2.54,0,0,0-1.69-.49h-2v3.77Z"/><path class="cls-4" d="M485.11,64.13h-4.46A2.23,2.23,0,0,0,481,65.2a1.89,1.89,0,0,0,.78.73,2.27,2.27,0,0,0,1.11.26,2.46,2.46,0,0,0,.94-.18,1.8,1.8,0,0,0,.71-.54l.29.33a2.06,2.06,0,0,1-.85.62,2.92,2.92,0,0,1-2.48-.12,2.36,2.36,0,0,1-.95-.93,2.67,2.67,0,0,1-.34-1.36,2.79,2.79,0,0,1,.32-1.36,2.28,2.28,0,0,1,.89-.93,2.37,2.37,0,0,1,1.27-.34,2.42,2.42,0,0,1,1.26.33,2.35,2.35,0,0,1,.89.93,2.86,2.86,0,0,1,.32,1.35Zm-3.44-2.07a1.76,1.76,0,0,0-.7.68,2.26,2.26,0,0,0-.31,1h4a2.16,2.16,0,0,0-.29-1,2,2,0,0,0-.71-.69,2,2,0,0,0-1-.25A2,2,0,0,0,481.67,62.06Z"/><path class="cls-4" d="M489.74,61.87a1.92,1.92,0,0,1,.51,1.44V66.6h-.47v-.92a1.78,1.78,0,0,1-.73.71,2.4,2.4,0,0,1-1.14.25,2.13,2.13,0,0,1-1.37-.41,1.4,1.4,0,0,1,0-2.12,2.17,2.17,0,0,1,1.47-.4h1.78v-.42a1.43,1.43,0,0,0-.4-1.1,1.58,1.58,0,0,0-1.14-.38,2.72,2.72,0,0,0-1,.18,2.54,2.54,0,0,0-.8.48l-.25-.36a2.79,2.79,0,0,1,.94-.54,3.33,3.33,0,0,1,1.14-.19A2.07,2.07,0,0,1,489.74,61.87Zm-.66,4.06a1.8,1.8,0,0,0,.68-.86v-1H488a1.74,1.74,0,0,0-1.11.28.91.91,0,0,0-.34.76,1,1,0,0,0,.38.8,1.71,1.71,0,0,0,1.06.29A2,2,0,0,0,489.08,65.93Z"/><path class="cls-4" d="M493,66.3a2.4,2.4,0,0,1-.93-.94,2.66,2.66,0,0,1-.34-1.35,2.7,2.7,0,0,1,.34-1.37,2.38,2.38,0,0,1,.93-.93,2.75,2.75,0,0,1,1.35-.33,2.64,2.64,0,0,1,1.14.24,2,2,0,0,1,.83.71l-.37.27a1.68,1.68,0,0,0-.69-.58,2.09,2.09,0,0,0-.91-.2,2.17,2.17,0,0,0-1.08.28,1.88,1.88,0,0,0-.76.77,2.54,2.54,0,0,0,0,2.28,1.88,1.88,0,0,0,.76.77,2.16,2.16,0,0,0,1.08.27,2.09,2.09,0,0,0,.91-.19,1.68,1.68,0,0,0,.69-.58l.37.27a2.12,2.12,0,0,1-.83.71,2.84,2.84,0,0,1-2.49-.1Z"/><path class="cls-4" d="M501.8,61.94a2.2,2.2,0,0,1,.56,1.63v3h-.49v-3a1.87,1.87,0,0,0-.44-1.33,1.68,1.68,0,0,0-1.24-.46,1.92,1.92,0,0,0-1.44.55,2,2,0,0,0-.53,1.47V66.6h-.49V59.23h.49V62.5a1.94,1.94,0,0,1,.8-.83,2.55,2.55,0,0,1,1.24-.29A2.11,2.11,0,0,1,501.8,61.94Z"/><path class="cls-4" d="M511.67,60.27a2.37,2.37,0,0,1,0,3.44,3.16,3.16,0,0,1-2.06.62h-2V66.6h-.5V59.65h2.49A3.16,3.16,0,0,1,511.67,60.27Zm-.36,3.11a1.69,1.69,0,0,0,.58-1.39,1.71,1.71,0,0,0-.58-1.39,2.57,2.57,0,0,0-1.7-.49h-2v3.76h2A2.57,2.57,0,0,0,511.31,63.38Z"/><path class="cls-4" d="M518.6,61.42V66.6h-.48V65.49a2,2,0,0,1-.77.85,2.26,2.26,0,0,1-1.19.3A2,2,0,0,1,514,64.45v-3h.49v3a1.83,1.83,0,0,0,.45,1.33,1.7,1.7,0,0,0,1.26.45,1.82,1.82,0,0,0,1.39-.54,2.09,2.09,0,0,0,.51-1.47V61.42Z"/><path class="cls-4" d="M524.61,61.71a2.35,2.35,0,0,1,.92.93,2.8,2.8,0,0,1,.33,1.37,2.77,2.77,0,0,1-.33,1.36,2.35,2.35,0,0,1-.92.93,2.54,2.54,0,0,1-1.31.34,2.47,2.47,0,0,1-1.26-.33,2.21,2.21,0,0,1-.86-.93V66.6h-.48V59.23h.5V62.6a2.26,2.26,0,0,1,.86-.9,2.46,2.46,0,0,1,1.24-.32A2.63,2.63,0,0,1,524.61,61.71Zm-.27,4.2a1.92,1.92,0,0,0,.75-.77,2.42,2.42,0,0,0,0-2.26,2,2,0,0,0-.75-.78,2.11,2.11,0,0,0-1.07-.28,2.13,2.13,0,0,0-1.07.28,2.06,2.06,0,0,0-.74.78,2.5,2.5,0,0,0,0,2.26,2,2,0,0,0,.74.77,2,2,0,0,0,1.07.28A2,2,0,0,0,524.34,65.91Z"/><path class="cls-4" d="M527.4,59.23h.5V66.6h-.5Z"/><path class="cls-4" d="M530,60a.36.36,0,0,1-.12-.28.41.41,0,0,1,.7-.29.36.36,0,0,1,.12.28.41.41,0,0,1-.7.29Zm0,1.38h.5V66.6H530Z"/><path class="cls-4" d="M533.29,66.3a2.43,2.43,0,0,1-.94-.94A2.75,2.75,0,0,1,532,64a2.8,2.8,0,0,1,.33-1.37,2.4,2.4,0,0,1,.94-.93,2.7,2.7,0,0,1,1.35-.33,2.63,2.63,0,0,1,1.13.24,2,2,0,0,1,.83.71l-.36.27a1.82,1.82,0,0,0-.69-.58,2.13,2.13,0,0,0-.91-.2,2.18,2.18,0,0,0-1.09.28,1.92,1.92,0,0,0-.75.77,2.46,2.46,0,0,0,0,2.28,1.92,1.92,0,0,0,.75.77,2.18,2.18,0,0,0,1.09.27,2.12,2.12,0,0,0,.91-.19,1.82,1.82,0,0,0,.69-.58l.36.27a2.05,2.05,0,0,1-.83.71,2.63,2.63,0,0,1-1.13.24A2.6,2.6,0,0,1,533.29,66.3Z"/><path class="cls-4" d="M538.05,60a.36.36,0,0,1-.12-.28.41.41,0,0,1,.7-.29.36.36,0,0,1,.12.28.41.41,0,0,1-.7.29Zm0,1.38h.5V66.6h-.5Z"/><path class="cls-4" d="M540.8,66.45a2.22,2.22,0,0,1-.88-.48l.23-.39A2.36,2.36,0,0,0,541,66a3,3,0,0,0,1,.18,2,2,0,0,0,1.16-.26.81.81,0,0,0,.37-.71.7.7,0,0,0-.2-.52,1.34,1.34,0,0,0-.5-.27,7.11,7.11,0,0,0-.83-.19,9.06,9.06,0,0,1-1-.24,1.66,1.66,0,0,1-.65-.42,1.16,1.16,0,0,1-.26-.79,1.25,1.25,0,0,1,.51-1,2.28,2.28,0,0,1,1.45-.4,3.38,3.38,0,0,1,1,.14,2.52,2.52,0,0,1,.79.36l-.23.4a2.41,2.41,0,0,0-.72-.35,3,3,0,0,0-.84-.12,1.85,1.85,0,0,0-1.09.27.86.86,0,0,0-.37.71.7.7,0,0,0,.21.54,1.42,1.42,0,0,0,.51.29c.21.06.49.13.85.2a7.21,7.21,0,0,1,1,.23,1.5,1.5,0,0,1,.63.41,1.08,1.08,0,0,1,.26.76,1.21,1.21,0,0,1-.54,1,2.54,2.54,0,0,1-1.51.39A3.66,3.66,0,0,1,540.8,66.45Z"/><path class="cls-4" d="M548,66.27a1.37,1.37,0,0,1-.47.28,2,2,0,0,1-.59.09,1.42,1.42,0,0,1-1.05-.37,1.45,1.45,0,0,1-.36-1V61.84h-1v-.42h1V60.29H546v1.13h1.65v.42H546v3.34a1.07,1.07,0,0,0,.25.77.91.91,0,0,0,.72.26,1.11,1.11,0,0,0,.8-.29Z"/><path class="cls-4" d="M549.5,66.45a2.22,2.22,0,0,1-.88-.48l.22-.39a2.45,2.45,0,0,0,.82.44,3.13,3.13,0,0,0,1.05.18,2,2,0,0,0,1.16-.26.83.83,0,0,0,.37-.71.7.7,0,0,0-.2-.52,1.38,1.38,0,0,0-.51-.27,6.86,6.86,0,0,0-.82-.19,9.06,9.06,0,0,1-1-.24,1.59,1.59,0,0,1-.65-.42,1.11,1.11,0,0,1-.27-.79,1.25,1.25,0,0,1,.51-1,2.33,2.33,0,0,1,1.46-.4,3.27,3.27,0,0,1,1,.14,2.47,2.47,0,0,1,.8.36l-.23.4a2.47,2.47,0,0,0-.73-.35,2.92,2.92,0,0,0-.83-.12,1.82,1.82,0,0,0-1.09.27.83.83,0,0,0-.37.71.7.7,0,0,0,.21.54,1.42,1.42,0,0,0,.51.29,8.53,8.53,0,0,0,.85.2,7.6,7.6,0,0,1,1,.23,1.64,1.64,0,0,1,.63.41,1.07,1.07,0,0,1,.25.76,1.2,1.2,0,0,1-.53,1,2.54,2.54,0,0,1-1.51.39A3.62,3.62,0,0,1,549.5,66.45Z"/><path class="cls-5" d="M53,64.06H29.71A29.71,29.71,0,0,1,0,34.35V29.71A29.71,29.71,0,0,1,29.71,0H53V22.05H32a10,10,0,0,0-10,10h0A10,10,0,0,0,32,42H53Z"/><path class="cls-6" d="M55,64.06H78.36a29.72,29.72,0,0,0,29.72-29.71V29.71A29.72,29.72,0,0,0,78.36,0H55V22.05H76A10,10,0,0,1,86,32h0A10,10,0,0,1,76,42H55Z"/><polygon class="cls-7" points="55.04 86.04 55.04 64.03 77.05 64.03 55.04 86.04"/><polygon class="cls-8" points="55.04 64.03 71.14 69.94 77.05 64.03 55.04 64.03"/></g></g></g></svg>