<svg xmlns="http://www.w3.org/2000/svg" xmlns:xlink="http://www.w3.org/1999/xlink" width="516" height="824" viewBox="0 0 516 824"><defs><style>.a{fill:url(#a);}.b{fill:url(#d);}.c{clip-path:url(#g);}.d{opacity:0.528;fill:url(#h);}.e{opacity:0.2;fill:url(#i);}.f{filter:url(#e);}.g{filter:url(#b);}</style><linearGradient id="a" x1="0.189" y1="0.949" x2="1.107" y2="0.029" gradientUnits="objectBoundingBox"><stop offset="0" stop-color="#5922f2"/><stop offset="1" stop-color="#b125f2"/></linearGradient><filter id="b" x="0" y="0" width="516" height="742" filterUnits="userSpaceOnUse"><feOffset dy="20" input="SourceAlpha"/><feGaussianBlur stdDeviation="25" result="c"/><feFlood flood-opacity="0.078"/><feComposite operator="in" in2="c"/><feComposite in="SourceGraphic"/></filter><linearGradient id="d" x1="0.886" y1="0.085" x2="0.137" y2="0.961" gradientUnits="objectBoundingBox"><stop offset="0" stop-color="#f7ae00"/><stop offset="1" stop-color="#ea4c6c"/></linearGradient><filter id="e" x="0" y="0" width="516" height="824" filterUnits="userSpaceOnUse"><feOffset dy="20" input="SourceAlpha"/><feGaussianBlur stdDeviation="25" result="f"/><feFlood flood-opacity="0.129"/><feComposite operator="in" in2="f"/><feComposite in="SourceGraphic"/></filter><clipPath id="g"><g class="g" transform="matrix(1, 0, 0, 1, 0, 0)"><rect class="a" width="366" height="592" rx="40" transform="translate(706.18)"/></g></clipPath><linearGradient id="h" x1="0.562" y1="0.858" x2="0.566" y2="0.455" xlink:href="#d"/><linearGradient id="i" x1="0.403" y1="0.685" x2="0.724" y2="0.297" xlink:href="#d"/></defs><g transform="translate(75 55)"><g class="f" transform="matrix(1, 0, 0, 1, -75, -55)"><rect class="b" width="366" height="674" rx="40" transform="translate(75 55)"/></g><g class="c" transform="translate(-706.178)"><path class="d" d="M0,323c164.3-4.55,113.055-126.636,235.284-93.157S261.945,94.292,376.928,116.562,368.916-10.149,517.589.551,602.656,246.42,602.656,246.42L539.727,323Z" transform="matrix(-0.995, -0.105, 0.105, -0.995, 1094.77, 300.939)"/><path class="e" d="M0,323c164.3-4.55,113.055-126.636,235.284-93.157S261.945,94.292,376.928,116.562,368.916-10.149,517.589.551,602.656,246.42,602.656,246.42L539.727,323Z" transform="matrix(-0.995, -0.105, 0.105, -0.995, 1067.77, 312.939)"/></g></g></svg>