<svg xmlns="http://www.w3.org/2000/svg" xmlns:xlink="http://www.w3.org/1999/xlink" width="366" height="29" viewBox="0 0 366 29"><defs><style>.a{fill:#fff;stroke:#707070;}.b{clip-path:url(#a);}.c{opacity:0.3;}.d{fill:rgba(255,255,255,0);stroke:#fff;}</style><clipPath id="a"><rect class="a" width="366" height="29" transform="translate(381 1156)"/></clipPath></defs><g class="b" transform="translate(-381 -1156)"><g class="c" transform="translate(-474.568 925.501)"><path class="d" d="M2312.958,537.047c-25.822,2.764-26.065-18.971-51.917-18.971s-25.854,18.98-51.71,18.98-25.852-18.98-51.706-18.98-25.853,18.98-51.707,18.98-25.854-18.98-51.709-18.98-25.853,18.98-51.707,18.98-25.855-18.98-51.708-18.98-25.856,18.98-51.711,18.98-25.854-18.98-51.708-18.98-25.854,18.98-51.707,18.98-25.854-18.98-51.708-18.98-25.855,18.98-51.709,18.98-25.856-18.98-51.71-18.98-25.856,18.98-51.711,18.98-25.856-18.98-51.711-18.98-25.855,18.98-51.71,18.98-25.854-18.98-51.71-18.98-25.855,18.98-51.708,18.98-25.856-18.98-51.71-18.98-25.856,18.98-51.711,18.98-25.856-18.98-51.71-18.98-25.856,18.98-51.711,18.98-25.855-18.98-51.71-18.98-25.854,18.98-51.71,18.98-25.856-18.98-51.711-18.98-25.852,18.98-51.706,18.98-25.853-18.98-51.707-18.98-25.857,18.98-51.714,18.98-25.854-18.98-51.707-18.98-25.856,18.98-51.711,18.98-25.855-18.98-51.709-18.98-25.855,18.98-51.709,18.98-25.856-18.98-51.711-18.98-25.857,18.98-51.714,18.98-25.858-18.98-51.715-18.98-25.857,18.98-51.714,18.98-25.857-18.98-51.715-18.98-25.856,18.98-51.712,18.98-25.856-18.98-51.712-18.98-25.858,18.98-51.716,18.98-25.857-18.98-51.714-18.98-25.86,18.98-51.721,18.98-25.68-16.216-51.51-18.968c-1.256-.133-4.542,6.724-4.542,3.969s8.662-2.754,8.662-5.511-8.662-2.757-8.662-5.514,8.662-2.759,8.662-5.516-8.662-2.757-8.662-5.514,8.662-2.754,8.662-5.509-8.662-2.757-8.662-5.511,8.662-2.757,8.662-5.514-8.662-2.759-8.662-5.516,8.662-2.759,8.662-5.516-8.662-2.757-8.662-5.514,8.662-2.757,8.662-5.511-8.662-2.759-8.662-5.516,8.662-2.759,8.662-5.518-8.662-2.757-8.662-5.516,8.662-2.757,8.662-5.514-8.662-2.757-8.662-5.516,8.662-2.759,8.662-5.518-8.662-2.757-8.662-5.514,8.662-2.759,8.662-5.516-8.662-2.759-8.662-5.518,8.662-2.754,8.662-5.509-8.662-2.752-8.662-5.5,8.662-2.754,8.662-5.509-8.662-2.759-8.662-5.518,8.662-2.757,8.662-5.516-8.662-2.754-8.662-5.509,8.662-2.759,8.662-5.516-8.662-2.762-8.662-5.521,8.662-2.759,8.662-5.516-8.662-2.762-8.662-5.521,8.662-2.759,8.662-5.518-8.662-2.762-8.662-5.526,8.662-2.759,8.662-5.518-8.662-2.762-8.662-5.523,8.662-2.762,8.662-5.523-8.662-2.757-8.662-5.514,8.662-2.762,8.662-5.523-8.662-2.764-8.662-5.528,8.662-2.764,8.662-5.528-8.662-2.764-8.662-5.53,8.662-2.769,8.662-5.537-5.8-14.883-4.542-15.018c25.822-2.766,26.065,18.968,51.917,18.968s25.855-18.98,51.709-18.98,25.854,18.98,51.707,18.98,25.854-18.98,51.707-18.98,25.855,18.98,51.709,18.98,25.854-18.98,51.707-18.98,25.854,18.98,51.707,18.98,25.856-18.98,51.711-18.98,25.855,18.98,51.708,18.98,25.854-18.98,51.708-18.98,25.854,18.98,51.708,18.98,25.855-18.98,51.709-18.98,25.855,18.98,51.71,18.98,25.856-18.98,51.711-18.98,25.855,18.98,51.71,18.98,25.856-18.98,51.711-18.98,25.855,18.98,51.709,18.98,25.855-18.98,51.709-18.98,25.854,18.98,51.709,18.98,25.857-18.98,51.713-18.98,25.855,18.98,51.709,18.98,25.856-18.98,51.712-18.98,25.855,18.98,51.709,18.98,25.856-18.98,51.711-18.98,25.856,18.98,51.711,18.98,25.853-18.98,51.7-18.98,25.853,18.98,51.708,18.98,25.856-18.98,51.712-18.98,25.855,18.98,51.708,18.98,25.856-18.98,51.711-18.98,25.854,18.98,51.708,18.98,25.856-18.98,51.71-18.98,25.856,18.98,51.711,18.98,25.857-18.98,51.714-18.98,25.857,18.98,51.715,18.98,25.856-18.98,51.713-18.98,25.858,18.98,51.716,18.98,25.856-18.98,51.711-18.98,25.857,18.98,51.713,18.98,25.858-18.98,51.716-18.98,25.857,18.98,51.713,18.98,25.86-18.98,51.72-18.98,25.681,16.219,51.511,18.971c1.256.133,4.541-6.726,4.541-3.972s-8.662,2.757-8.662,5.511,8.662,2.759,8.662,5.516-8.662,2.757-8.662,5.516,8.662,2.757,8.662,5.511-8.662,2.757-8.662,5.511,8.662,2.754,8.662,5.511-8.662,2.757-8.662,5.514,8.662,2.757,8.662,5.516-8.662,2.757-8.662,5.516,8.662,2.757,8.662,5.511-8.662,2.757-8.662,5.514,8.662,2.757,8.662,5.514-8.662,2.759-8.662,5.521,8.662,2.757,8.662,5.514-8.662,2.757-8.662,5.514,8.662,2.759,8.662,5.516-8.662,2.759-8.662,5.518,8.662,2.759,8.662,5.516-8.662,2.757-8.662,5.516,8.662,2.759,8.662,5.518-8.662,2.752-8.662,5.507,8.662,2.754,8.662,5.507-8.662,2.754-8.662,5.509,8.662,2.757,8.662,5.516-8.662,2.759-8.662,5.516,8.662,2.757,8.662,5.511-8.662,2.757-8.662,5.516,8.662,2.759,8.662,5.521-8.662,2.757-8.662,5.516,8.662,2.759,8.662,5.521-8.662,2.759-8.662,5.518,8.662,2.762,8.662,5.523-8.662,2.762-8.662,5.521,8.662,2.762,8.662,5.523-8.662,2.762-8.662,5.523,8.662,2.757,8.662,5.514-8.662,2.762-8.662,5.521,8.662,2.764,8.662,5.528-8.662,2.764-8.662,5.528,8.662,2.766,8.662,5.53-8.806,4.287-8.609,7.023C2309.024,531.21,2314.219,536.911,2312.958,537.047Z" transform="translate(-84.854 -280.594)"/></g></g></svg>