<svg xmlns="http://www.w3.org/2000/svg" xmlns:xlink="http://www.w3.org/1999/xlink" width="1143" height="558" viewBox="0 0 1143 558"><defs><style>.a{fill:#fff;stroke:#707070;}.b{clip-path:url(#a);}.c{fill:url(#b);}.d{fill:url(#c);}.e{fill:#f0f5ff;}</style><clipPath id="a"><rect class="a" width="1143" height="558" transform="translate(777 906)"/></clipPath><linearGradient id="b" x1="0.5" x2="0.5" y2="1" gradientUnits="objectBoundingBox"><stop offset="0" stop-color="#5922f2"/><stop offset="1" stop-color="#b125f2"/></linearGradient><linearGradient id="c" x1="0.5" x2="0.5" y2="1" gradientUnits="objectBoundingBox"><stop offset="0" stop-color="#f7ae00"/><stop offset="1" stop-color="#ea4c6c"/></linearGradient></defs><g class="b" transform="translate(-777 -906)"><path class="c" d="M-19779.205-4322.847c425.619-11.786,292.879-328.06,609.521-241.332s69.068-351.148,366.938-293.456-20.754-328.253,364.395-300.535,220.371,636.943,220.371,636.943l-163.02,198.38Z" transform="translate(20679.449 5774.814)"/><path class="d" d="M-19779.205-4322.847c425.619-11.786,292.879-328.06,609.521-241.332s69.068-351.148,366.938-293.456-20.754-328.253,364.395-300.535,220.371,636.943,220.371,636.943l-163.02,198.38Z" transform="translate(20704.449 5769.814)"/><path class="e" d="M-19779.205-4322.847c425.619-11.786,292.879-328.06,609.521-241.332s69.068-351.148,366.938-293.456-20.754-328.253,364.395-300.535,220.371,636.943,220.371,636.943l-163.02,198.38Z" transform="translate(20695.449 5786.814)"/></g></svg>