<svg xmlns="http://www.w3.org/2000/svg" xmlns:xlink="http://www.w3.org/1999/xlink" width="89.223" height="49.299" viewBox="0 0 89.223 49.299"><defs><style>.a{fill:url(#a);}</style><linearGradient id="a" x1="-0.873" y1="1.914" x2="0.406" y2="-0.889" gradientUnits="objectBoundingBox"><stop offset="0" stop-color="#5922f2"/><stop offset="1" stop-color="#b125f2"/></linearGradient></defs><path class="a" d="M2600.782,263.364a10.649,10.649,0,0,1,0,21.3h-39.925a10.649,10.649,0,0,1,0-21.3h39.925m0-14h-39.925a24.649,24.649,0,0,0-24.649,24.649h0a24.649,24.649,0,0,0,24.649,24.65h39.925a24.649,24.649,0,0,0,24.649-24.65h0a24.649,24.649,0,0,0-24.649-24.649Z" transform="translate(-2536.208 -249.364)"/></svg>